<?xml version="1.0" encoding="utf-8"?>
<!-- Generator: Adobe Illustrator 23.0.3, SVG Export Plug-In . SVG Version: 6.00 Build 0)  -->
<svg version="1.1" id="Layer_1" xmlns="http://www.w3.org/2000/svg" xmlns:xlink="http://www.w3.org/1999/xlink" x="0px" y="0px"
	 viewBox="0 0 705 178.5" style="enable-background:new 0 0 705 178.5;" xml:space="preserve">
<style type="text/css">
	.st0{fill:#FFFFFF;}
</style>
<g>
	<g>
		<path class="st0" d="M124.3,144.3l-0.6-27.6l27.2-3.3l-19.1-22.7l18.5-21.8l-0.9-0.2L124,63.8l2.4-27.9L100,46.3L86.8,22.5
			L72.2,46L46,35l3,29.1l-26.6,4.8l0.7,0.7l18.7,19.2l-22.7,21.5l30.2,4.8l-4.8,30.4l1-0.5l25.9-13.5l14,26.5l14-26.2l25,13.4
			L124.3,144.3z M98.6,131l-12.7,23.8l0.3-23.2l13.7-19.9l-0.7,10.2L98.6,131z M72,123.5l-0.2-11.4l10.3,15.1l3,4.3l-0.3,23
			l-12.6-23.9L72,123.5z M49.9,114.2l-27.2-4.3l23.4-7.5l3.3,1.1l19.9,6.7l-5.9,1.2L49.9,114.2z M53.2,85.3l7.6-3l-15,19l-23.4,7.5
			l20.4-19.4L53.2,85.3z M74,50l9.8,14.3l-21.9-8.9L48.3,37.2l23.8,10L74,50z M100.1,47.5l24.1-9.5l-14.3,16.7l-14,5.8l-8.8,3.7
			l4.1-5.3L100.1,47.5z M117,72l-6.8,9.1l0.1-7.1l0.2-18.4l14.6-17l-2.2,25.5L117,72z M130.7,91.1l17.1,20.3l-22.1-8.7l-0.1-0.1
			L114.4,88l-3.1-4.1l1.2,0.5L130.7,91.1z M85.7,130.4L85.7,130.4l-3.1-4.6l-10.6-15.6l-0.7-0.5L47,101.5l1.9-2.4l13.6-17.3l0.6-0.5
			l0-0.6l-0.7-19.3l-0.2-4.8l6,2.5l16.7,6.8l0.8,0l23.6-9.8l-0.2,18.8l-0.1,7.7l0,0.7l0.6,0.5l14.6,18.9c0,0,0,0.1,0,0.1l-23.5,6.4
			l-0.7,0.5l-3.6,5.3L85.7,130.4z M125,103.6l22.9,9l-24.7,3l-20.6-5.9L125,103.6z M61.1,56l0.3,9.6l0.5,13.8l-8.5-10.8l-3.2-4.1
			l-2.7-26.6L61.1,56z M130.9,90l-8.4-3.1l-12-4.4l13.1-17.6l24.5,4.7L130.9,90z M86.8,24.6l12.3,22.3L88.9,60l-3.5,4.5L81,58.2
			l-7.9-11.5L86.8,24.6z M49.3,65.2l12.2,15.6l-12,4.8l-6.9,2.7L24.6,69.6L49.3,65.2z M50.4,115.2l20.4-4.2l0.3,19.5l-25.1,13.1
			L50.4,115.2z M99.7,130.8l0.6-9.4l0.8-11l21.5,6.1l0.6,26.8L99.7,130.8z"/>
		<path class="st0" d="M85.3,163.7l-15.1-28.6l-29.2,15.2l5.2-33l-32.9-5.2L38,88.8L17,67.2L46.1,62l-3.2-31.1l28.2,11.9L87,17.2
			L101.2,43l28.3-11.1l-2.5,29.8l28.3,5.5l-20,23.5l20.8,24.7l-29.7,3.6l0.6,30.7l-26.6-14.3L85.3,163.7z M74.7,130l7.5,14.3
			l0.2-11.9l-7.8-11.5L74.7,130z M88.8,132.4L88.7,144l7.3-13.7l0.6-9.1L88.8,132.4z M102.4,129.3l18,9.7l-0.4-20.3l-16.5-4.7
			L102.4,129.3z M52.7,117.4l-3.4,21.5l19-9.9l-0.2-14.7L52.7,117.4z M73.3,108l0.7,0.7l11.6,17l12.4-18l0.6-0.4l0-0.3l0.3,0.1
			l0.6-0.4l20.3-5.5l-12.5-16.1l-0.8-0.8l0-0.5l-0.1-0.1l0.1-0.2l0.2-23.6l-20.4,8.5l-0.7,0L85.2,69l-0.3-0.5l-0.5,0L65,60.6
			l0.7,21.1l0.1,0.2L65.7,82l0,0.5l-1.3,1.2l-13.1,16.5l21.1,7.1l0.6,0.5l0.2-0.1L73.3,108z M112.4,109.8l11,3.1l13.8-1.7l-12.4-4.9
			L112.4,109.8z M34,109l15.8,2.5l9.3-1.9L46,105.1L34,109z M127.4,100.6l11.7,4.6l-9.9-11.8l-10.2-3.8L127.4,100.6z M44.3,91.7
			l-11.7,11.1L44.2,99l8.4-10.7L44.3,91.7z M114.8,81.3l15.3,5.7l13.2-15.5l-18.5-3.6L114.8,81.3z M29.9,71.3l13.4,13.8l14-5.5
			l-9.1-11.6L29.9,71.3z M113.1,56.6L113,73l7.4-9.9l1.4-16.6L113.1,56.6z M52.7,63.3l6.3,8l-0.5-14.5L51,47L52.7,63.3z M76.3,46.6
			l9.2,13.5l10.4-13.4l-9.3-16.8L76.3,46.6z M63.6,53.2l13.1,5.3l-6.3-9.2l-14.1-5.9L63.6,53.2z M101.7,49.6l-6.4,8.2l13-5.4l7-8.1
			L101.7,49.6z"/>
	</g>
	<g>
		<g>
			<path class="st0" d="M126.3,103.3l-15.9-20.7l0.3-28.2L85.5,64.9l-24.3-9.9l0.9,25.9l-16.8,21.3l25.8,8.7l14.7,21.6l0.5-0.7
				l14.8-21.5L126.3,103.3z M100.9,109.1L86.7,90.7l3.5-1.1l19.4-6.2l14.8,19.3L100.9,109.1z M109.5,56l-0.3,26.3l-22.9,7.3L86,65.8
				L109.5,56z M84.9,65.8l0,1.2l0.3,22.5l-6.9-2.8l-15.1-6.1l-0.8-24L84.9,65.8z M62.8,81.7l22.1,9l-4.5,6.3l-9.2,12.7l-24.1-8.1
				L62.8,81.7z M85.8,130.4l-13.7-20.1l13.7-19l8.6,11.1l5.7,7.4L85.8,130.4z"/>
			<path class="st0" d="M85.8,137.1L69.4,113l-28.5-9.6l18.5-23.4l-1-29l27.1,11l27.9-11.6L113,81.7l17.8,23.1l-28.1,7.7L85.8,137.1
				z M75.3,110.4l10.5,15.4l11-15.9L85.9,95.7L75.3,110.4z M51.5,100.2l18.7,6.3l10.6-14.7l-17.2-7L51.5,100.2z M91.1,92l10.9,14.1
				l18-4.9l-11.3-14.7L91.1,92z M88.7,67.6L88.9,86l17.7-5.6l0.2-20.4L88.7,67.6z M65.7,78.8l16.8,6.8l-0.2-18l-17.2-7L65.7,78.8z"
				/>
		</g>
	</g>
</g>
<g>
	<path class="st0" d="M173.4,56.3H191l8.3,45.7l12.2-45.7H227l14.5,46.5l8.5-46.5h16.7l-14.3,68.4h-19.3L220.3,82l-13.1,42.7h-20.3
		L173.4,56.3z"/>
	<path class="st0" d="M684.2,124.7h-17.6l-8.3-45.9l-12.2,45.9h-15.5l-14.4-46.5l-8.5,46.5h-16.7l14.3-68.4h19.3L637.3,99l13.1-42.7
		h20.3L684.2,124.7z"/>
	<path class="st0" d="M303.6,55.1c22.3,0,33.9,13.4,33.9,35.4c0,21.8-11.8,35.4-33.9,35.4c-22.1,0-33.9-13.6-33.9-35.4
		C269.7,68.5,281.3,55.1,303.6,55.1z M303.6,112.3c10.9,0,15.3-10.6,15.3-21.9c0-11.9-4.4-21.9-15.3-21.9c-10.9,0-15.3,10-15.3,21.9
		C288.3,101.8,292.6,112.3,303.6,112.3z"/>
	<path class="st0" d="M347.6,56.3h18v54.9h27.9v13.5h-45.9V56.3z"/>
	<path class="st0" d="M400.9,56.3h45.2v12.9h-27.2v15h26v12.9h-26v27.5h-18V56.3z"/>
	<path class="st0" d="M455.5,56.3h32.1c12,0,21.8,5.5,21.8,17.3c0,9.1-4.3,15.2-13,17.3V91c5.8,1.6,6.2,6.8,9.6,15.1l6.6,18.6h-18.8
		l-3.9-12.3c-3.7-11.8-6-14.7-12.7-14.7h-3.8v27.1h-18V56.3z M473.5,84.7h4.8c5.8,0,13.2-0.2,13.2-7.9c0-6.4-6.3-7.5-13.2-7.5h-4.8
		V84.7z"/>
	<path class="st0" d="M539.9,56.3H562l26,68.4h-19.8l-5-14.6h-25.4l-5.3,14.6h-18.3L539.9,56.3z M551,70.4h-0.2l-8.7,26.8H559
		L551,70.4z"/>
</g>
<g>
</g>
<g>
</g>
<g>
</g>
<g>
</g>
<g>
</g>
<g>
</g>
</svg>
