<svg width="705" height="179" viewBox="0 0 705 179" fill="none" xmlns="http://www.w3.org/2000/svg">
<path d="M124.3 144.3L123.7 116.7L150.9 113.4L131.8 90.7L150.3 68.9L149.4 68.7L124 63.8L126.4 35.9L100 46.3L86.8 22.5L72.2 46L46 35L49 64.1L22.4 68.9L23.1 69.6L41.8 88.8L19.1 110.3L49.3 115.1L44.5 145.5L45.5 145L71.4 131.5L85.4 158L99.4 131.8L124.4 145.2L124.3 144.3ZM98.6 131L85.9 154.8L86.2 131.6L99.9 111.7L99.2 121.9L98.6 131ZM72 123.5L71.8 112.1L82.1 127.2L85.1 131.5L84.8 154.5L72.2 130.6L72 123.5ZM49.9 114.2L22.7 109.9L46.1 102.4L49.4 103.5L69.3 110.2L63.4 111.4L49.9 114.2ZM53.2 85.3L60.8 82.3L45.8 101.3L22.4 108.8L42.8 89.4L53.2 85.3ZM74 50L83.8 64.3L61.9 55.4L48.3 37.2L72.1 47.2L74 50ZM100.1 47.5L124.2 38L109.9 54.7L95.9 60.5L87.1 64.2L91.2 58.9L100.1 47.5ZM117 72L110.2 81.1L110.3 74L110.5 55.6L125.1 38.6L122.9 64.1L117 72ZM130.7 91.1L147.8 111.4L125.7 102.7L125.6 102.6L114.4 88L111.3 83.9L112.5 84.4L130.7 91.1ZM85.7 130.4L82.6 125.8L72 110.2L71.3 109.7L47 101.5L48.9 99.1L62.5 81.8L63.1 81.3V80.7L62.4 61.4L62.2 56.6L68.2 59.1L84.9 65.9H85.7L109.3 56.1L109.1 74.9L109 82.6V83.3L109.6 83.8L124.2 102.7V102.8L100.7 109.2L100 109.7L96.4 115L85.7 130.4ZM125 103.6L147.9 112.6L123.2 115.6L102.6 109.7L125 103.6ZM61.1 56L61.4 65.6L61.9 79.4L53.4 68.6L50.2 64.5L47.5 37.9L61.1 56ZM130.9 90L122.5 86.9L110.5 82.5L123.6 64.9L148.1 69.6L130.9 90ZM86.8 24.6L99.1 46.9L88.9 60L85.4 64.5L81 58.2L73.1 46.7L86.8 24.6ZM49.3 65.2L61.5 80.8L49.5 85.6L42.6 88.3L24.6 69.6L49.3 65.2ZM50.4 115.2L70.8 111L71.1 130.5L46 143.6L50.4 115.2ZM99.7 130.8L100.3 121.4L101.1 110.4L122.6 116.5L123.2 143.3L99.7 130.8Z" fill="black"/>
<path d="M85.3 163.7L70.2 135.1L41 150.3L46.2 117.3L13.3 112.1L38 88.8L17 67.2L46.1 62L42.9 30.9L71.1 42.8L87 17.2L101.2 43L129.5 31.9L127 61.7L155.3 67.2L135.3 90.7L156.1 115.4L126.4 119L127 149.7L100.4 135.4L85.3 163.7ZM74.7 130L82.2 144.3L82.4 132.4L74.6 120.9L74.7 130ZM88.8 132.4L88.7 144L96 130.3L96.6 121.2L88.8 132.4ZM102.4 129.3L120.4 139L120 118.7L103.5 114L102.4 129.3ZM52.7 117.4L49.3 138.9L68.3 129L68.1 114.3L52.7 117.4ZM73.3 108L74 108.7L85.6 125.7L98 107.7L98.6 107.3V107L98.9 107.1L99.5 106.7L119.8 101.2L107.3 85.1L106.5 84.3V83.8L106.4 83.7L106.5 83.5L106.7 59.9L86.3 68.4H85.6L85.2 69L84.9 68.5H84.4L65 60.6L65.7 81.7L65.8 81.9L65.7 82V82.5L64.4 83.7L51.3 100.2L72.4 107.3L73 107.8L73.2 107.7L73.3 108ZM112.4 109.8L123.4 112.9L137.2 111.2L124.8 106.3L112.4 109.8ZM34 109L49.8 111.5L59.1 109.6L46 105.1L34 109ZM127.4 100.6L139.1 105.2L129.2 93.4L119 89.6L127.4 100.6ZM44.3 91.7L32.6 102.8L44.2 99L52.6 88.3L44.3 91.7ZM114.8 81.3L130.1 87L143.3 71.5L124.8 67.9L114.8 81.3ZM29.9 71.3L43.3 85.1L57.3 79.6L48.2 68L29.9 71.3ZM113.1 56.6L113 73L120.4 63.1L121.8 46.5L113.1 56.6ZM52.7 63.3L59 71.3L58.5 56.8L51 47L52.7 63.3ZM76.3 46.6L85.5 60.1L95.9 46.7L86.6 29.9L76.3 46.6ZM63.6 53.2L76.7 58.5L70.4 49.3L56.3 43.4L63.6 53.2ZM101.7 49.6L95.3 57.8L108.3 52.4L115.3 44.3L101.7 49.6Z" fill="black"/>
<path d="M126.3 103.3L110.4 82.6L110.7 54.4L85.5 64.9L61.2 55L62.1 80.9L45.3 102.2L71.1 110.9L85.8 132.5L86.3 131.8L101.1 110.3L126.3 103.3ZM100.9 109.1L86.7 90.7L90.2 89.6L109.6 83.4L124.4 102.7L100.9 109.1ZM109.5 56L109.2 82.3L86.3 89.6L86 65.8L109.5 56ZM84.9 65.8V67L85.2 89.5L78.3 86.7L63.2 80.6L62.4 56.6L84.9 65.8ZM62.8 81.7L84.9 90.7L80.4 97L71.2 109.7L47.1 101.6L62.8 81.7ZM85.8 130.4L72.1 110.3L85.8 91.3L94.4 102.4L100.1 109.8L85.8 130.4Z" fill="black"/>
<path d="M85.8 137.1L69.4 113L40.9 103.4L59.4 80L58.4 51L85.5 62L113.4 50.4L113 81.7L130.8 104.8L102.7 112.5L85.8 137.1ZM75.3 110.4L85.8 125.8L96.8 109.9L85.9 95.7L75.3 110.4ZM51.5 100.2L70.2 106.5L80.8 91.8L63.6 84.8L51.5 100.2ZM91.1 92L102 106.1L120 101.2L108.7 86.5L91.1 92ZM88.7 67.6L88.9 86L106.6 80.4L106.8 60L88.7 67.6ZM65.7 78.8L82.5 85.6L82.3 67.6L65.1 60.6L65.7 78.8Z" fill="black"/>
<path d="M173.4 56.3H191L199.3 102L211.5 56.3H227L241.5 102.8L250 56.3H266.7L252.4 124.7H233.1L220.3 82L207.2 124.7H186.9L173.4 56.3Z" fill="black"/>
<path d="M684.2 124.7H666.6L658.3 78.8L646.1 124.7H630.6L616.2 78.2L607.7 124.7H591L605.3 56.3H624.6L637.3 99L650.4 56.3H670.7L684.2 124.7Z" fill="black"/>
<path d="M303.6 55.1C325.9 55.1 337.5 68.5 337.5 90.5C337.5 112.3 325.7 125.9 303.6 125.9C281.5 125.9 269.7 112.3 269.7 90.5C269.7 68.5 281.3 55.1 303.6 55.1ZM303.6 112.3C314.5 112.3 318.9 101.7 318.9 90.4C318.9 78.5 314.5 68.5 303.6 68.5C292.7 68.5 288.3 78.5 288.3 90.4C288.3 101.8 292.6 112.3 303.6 112.3Z" fill="black"/>
<path d="M347.6 56.3H365.6V111.2H393.5V124.7H347.6V56.3Z" fill="black"/>
<path d="M400.9 56.3H446.1V69.2H418.9V84.2H444.9V97.1H418.9V124.6H400.9V56.3Z" fill="black"/>
<path d="M455.5 56.3H487.6C499.6 56.3 509.4 61.8 509.4 73.6C509.4 82.7 505.1 88.8 496.4 90.9V91C502.2 92.6 502.6 97.8 506 106.1L512.6 124.7H493.8L489.9 112.4C486.2 100.6 483.9 97.7 477.2 97.7H473.4V124.8H455.4V56.3H455.5ZM473.5 84.7H478.3C484.1 84.7 491.5 84.5 491.5 76.8C491.5 70.4 485.2 69.3 478.3 69.3H473.5V84.7Z" fill="black"/>
<path d="M539.9 56.3H562L588 124.7H568.2L563.2 110.1H537.8L532.5 124.7H514.2L539.9 56.3ZM551 70.4H550.8L542.1 97.2H559L551 70.4Z" fill="black"/>
</svg>
